<svg version="1.1" xmlns="http://www.w3.org/2000/svg" xmlns:xlink="http://www.w3.org/1999/xlink" width="9.74715" height="10.27205" viewBox="-0.18192,-0.12505,9.74715,10.27205"><g fill="none" fill-rule="evenodd" stroke="#000000" stroke-width="0.25" stroke-linecap="round" stroke-linejoin="miter" stroke-miterlimit="10" stroke-dasharray="" stroke-dashoffset="0" font-family="none" font-weight="none" font-size="none" text-anchor="none" style="mix-blend-mode: normal"><path d="M1.408,10.021h-1.408l3.849,-10.021h1.428l4.102,10.021h-1.511l-1.169,-3.035h-4.19z"></path><path d="M3.821,10.022h-3.821v-10.022h3.76c0.24042,-0.00091 0.48073,0.01044 0.72,0.034c0.234,0.024 0.44933,0.06067 0.646,0.11c0.16285,0.03996 0.32207,0.09348 0.476,0.16c0.4505,0.19243 0.83026,0.51979 1.087,0.937c0.15414,0.24372 0.26667,0.51137 0.333,0.792c0.04004,0.17416 0.06017,0.3523 0.06,0.531c0,0.428 -0.11633,0.831 -0.349,1.209c-0.1585,0.25504 -0.3658,0.47627 -0.61,0.651c-0.13957,0.10068 -0.28743,0.18933 -0.442,0.265c0.24796,0.07083 0.48612,0.17228 0.709,0.302c0.26716,0.15573 0.50124,0.36229 0.689,0.608c0.29355,0.3879 0.46203,0.856 0.483,1.342c0.00336,0.05827 0.00503,0.11663 0.005,0.175c0.00373,0.45345 -0.09794,0.90156 -0.297,1.309c-0.08106,0.16735 -0.17712,0.327 -0.287,0.477c-0.12644,0.17291 -0.27736,0.32651 -0.448,0.456c-0.16332,0.12137 -0.34017,0.22339 -0.527,0.304c-0.174,0.076 -0.364,0.14 -0.57,0.192c-0.19263,0.04782 -0.38799,0.08388 -0.585,0.108c-0.30867,0.04 -0.65267,0.06 -1.032,0.06z"></path></g></svg>