<svg version="1.1" xmlns="http://www.w3.org/2000/svg" xmlns:xlink="http://www.w3.org/1999/xlink" width="9.74715" height="10.271" viewBox="-0.18192,-0.125,9.74715,10.271"><defs><clipPath id="clip-1"><rect x="0" y="0" width="7.567" height="10.022" fill-rule="nonzero" stroke="none" stroke-width="1" stroke-linecap="butt"></rect></clipPath></defs><g fill="none" fill-rule="none" stroke="none" stroke-width="none" stroke-linecap="none" stroke-linejoin="miter" stroke-miterlimit="10" stroke-dasharray="" stroke-dashoffset="0" font-family="none" font-weight="none" font-size="none" text-anchor="none" style="mix-blend-mode: normal"><path d="M1.408,10.021h-1.408l3.849,-10.021h1.428l4.102,10.021h-1.511l-1.169,-3.035h-4.19z" fill-rule="evenodd" stroke="#000000" stroke-width="0.25" stroke-linecap="round"></path><g clip-path="url(#clip-1)"><g id="svgGroup" fill-rule="evenodd" stroke="#000000" stroke-width="0.25" stroke-linecap="round"><path d="M3.821,10.022h-3.821v-10.022h3.76c0.24042,-0.00091 0.48073,0.01044 0.72,0.034c0.234,0.024 0.44933,0.06067 0.646,0.11c0.16285,0.03996 0.32207,0.09348 0.476,0.16c0.4505,0.19243 0.83026,0.51979 1.087,0.937c0.15414,0.24372 0.26667,0.51137 0.333,0.792c0.04004,0.17416 0.06017,0.3523 0.06,0.531c0,0.428 -0.11633,0.831 -0.349,1.209c-0.1585,0.25504 -0.3658,0.47627 -0.61,0.651c-0.13957,0.10068 -0.28743,0.18933 -0.442,0.265c0.24796,0.07083 0.48612,0.17228 0.709,0.302c0.26716,0.15573 0.50124,0.36229 0.689,0.608c0.29355,0.3879 0.46203,0.856 0.483,1.342c0.00336,0.05827 0.00503,0.11663 0.005,0.175c0.00373,0.45345 -0.09794,0.90156 -0.297,1.309c-0.08106,0.16735 -0.17712,0.327 -0.287,0.477c-0.12644,0.17291 -0.27736,0.32651 -0.448,0.456c-0.16332,0.12137 -0.34017,0.22339 -0.527,0.304c-0.174,0.076 -0.364,0.14 -0.57,0.192c-0.19263,0.04782 -0.38799,0.08388 -0.585,0.108c-0.30867,0.04 -0.65267,0.06 -1.032,0.06zM1.326,5.394v3.445h2.495c0.09934,0.00008 0.19868,-0.00092 0.298,-0.003c0.26733,-0.006 0.466,-0.02033 0.596,-0.043c0.003,-0.00066 0.006,-0.00132 0.009,-0.002c0.12155,-0.02146 0.2415,-0.0512 0.359,-0.089c0.124,-0.04 0.23667,-0.088 0.338,-0.144c0.023,-0.01276 0.04567,-0.0261 0.068,-0.04c0.14953,-0.09443 0.27927,-0.21704 0.382,-0.361c0.04567,-0.06284 0.08709,-0.12865 0.124,-0.197c0.09266,-0.17304 0.1533,-0.3614 0.179,-0.556c0.01299,-0.09544 0.01934,-0.19168 0.019,-0.288c0.00138,-0.17966 -0.02355,-0.35856 -0.074,-0.531c-0.04706,-0.15803 -0.11896,-0.30756 -0.213,-0.443c-0.18304,-0.26338 -0.44548,-0.46135 -0.749,-0.565c-0.01559,-0.00554 -0.03126,-0.01088 -0.047,-0.016c-0.11844,-0.03782 -0.23941,-0.06722 -0.362,-0.088c-0.29733,-0.05267 -0.66533,-0.079 -1.104,-0.079zM1.326,1.183v3.028h2.167c0.588,0 1.00967,-0.03867 1.265,-0.116c0.12632,-0.03689 0.24809,-0.08788 0.363,-0.152c0.15626,-0.08584 0.29231,-0.20416 0.399,-0.347c0.11069,-0.15267 0.18648,-0.3278 0.222,-0.513c0.02344,-0.11922 0.03483,-0.2405 0.034,-0.362c0.00145,-0.16801 -0.02111,-0.33537 -0.067,-0.497c-0.03919,-0.13475 -0.09709,-0.26333 -0.172,-0.382c-0.15672,-0.25054 -0.39963,-0.43513 -0.683,-0.519c-0.29667,-0.09333 -0.805,-0.14 -1.525,-0.14z"></path></g></g></g></svg>