<svg version="1.1" xmlns="http://www.w3.org/2000/svg" xmlns:xlink="http://www.w3.org/1999/xlink" width="9.74715" height="10.61325" viewBox="-0.18192,-0.12511,9.74715,10.61325"><defs><clipPath id="clip-1"><rect x="0" y="0" width="6.262" height="10.021" fill-rule="nonzero" stroke="none" stroke-width="1" stroke-linecap="butt"></rect></clipPath></defs><g fill="none" fill-rule="none" stroke="none" stroke-width="none" stroke-linecap="none" stroke-linejoin="miter" stroke-miterlimit="10" stroke-dasharray="" stroke-dashoffset="0" font-family="none" font-weight="none" font-size="none" text-anchor="none" style="mix-blend-mode: normal"><path d="M1.408,10.021h-1.408l3.849,-10.021h1.428l4.102,10.021h-1.511l-1.169,-3.035h-4.19z" fill-rule="evenodd" stroke="#000000" stroke-width="0.25" stroke-linecap="round"></path><path d="M3.821,10.022h-3.821v-10.022h3.76c0.24042,-0.00091 0.48073,0.01044 0.72,0.034c0.234,0.024 0.44933,0.06067 0.646,0.11c0.16285,0.03996 0.32207,0.09348 0.476,0.16c0.4505,0.19243 0.83026,0.51979 1.087,0.937c0.15414,0.24372 0.26667,0.51137 0.333,0.792c0.04004,0.17416 0.06017,0.3523 0.06,0.531c0,0.428 -0.11633,0.831 -0.349,1.209c-0.1585,0.25504 -0.3658,0.47627 -0.61,0.651c-0.13957,0.10068 -0.28743,0.18933 -0.442,0.265c0.24796,0.07083 0.48612,0.17228 0.709,0.302c0.26716,0.15573 0.50124,0.36229 0.689,0.608c0.29355,0.3879 0.46203,0.856 0.483,1.342c0.00336,0.05827 0.00503,0.11663 0.005,0.175c0.00373,0.45345 -0.09794,0.90156 -0.297,1.309c-0.08106,0.16735 -0.17712,0.327 -0.287,0.477c-0.12644,0.17291 -0.27736,0.32651 -0.448,0.456c-0.16332,0.12137 -0.34017,0.22339 -0.527,0.304c-0.174,0.076 -0.364,0.14 -0.57,0.192c-0.19263,0.04782 -0.38799,0.08388 -0.585,0.108c-0.30867,0.04 -0.65267,0.06 -1.032,0.06z" fill-rule="evenodd" stroke="#000000" stroke-width="0.25" stroke-linecap="round"></path><path d="M7.533,6.679l1.326,0.335c-0.10108,0.40826 -0.24801,0.80377 -0.438,1.179c-0.2555,0.50892 -0.61773,0.95676 -1.062,1.313c-0.57411,0.45055 -1.26194,0.73303 -1.987,0.816c-0.21957,0.02777 -0.44068,0.04146 -0.662,0.041c-0.36374,0.00199 -0.727,-0.02645 -1.086,-0.085c-0.40267,-0.068 -0.768,-0.17667 -1.096,-0.326c-0.15693,-0.07135 -0.30834,-0.15424 -0.453,-0.248c-0.54238,-0.35588 -0.98884,-0.83978 -1.3,-1.409c-0.09089,-0.16267 -0.17269,-0.33026 -0.245,-0.502c-0.34508,-0.82255 -0.52484,-1.705 -0.529,-2.597c-0.0005,-0.02966 -0.00084,-0.05933 -0.001,-0.089c-0.00234,-0.46326 0.04188,-0.92558 0.132,-1.38c0.09272,-0.46955 0.24952,-0.92414 0.466,-1.351c0.39867,-0.77733 0.966,-1.36767 1.702,-1.771c0.73913,-0.40251 1.56839,-0.61068 2.41,-0.605c0.007,-0.00001 0.014,-0.00001 0.021,0c1.002,0 1.845,0.25533 2.529,0.766c0.54623,0.41136 0.97148,0.96236 1.231,1.595c0.07705,0.18189 0.14317,0.36822 0.198,0.558l-1.306,0.308c-0.07334,-0.23459 -0.16599,-0.46271 -0.277,-0.682c-0.122,-0.23733 -0.26033,-0.44267 -0.415,-0.616c-0.09673,-0.1086 -0.20391,-0.20741 -0.32,-0.295c-0.29305,-0.21767 -0.63147,-0.36636 -0.99,-0.435c-0.22329,-0.04396 -0.45043,-0.0654 -0.678,-0.064c-0.29446,-0.00207 -0.58825,0.02845 -0.876,0.091c-0.37925,0.08175 -0.73808,0.23923 -1.055,0.463c-0.51733,0.36867 -0.88067,0.864 -1.09,1.486c-0.20954,0.62013 -0.31596,1.27043 -0.315,1.925c-0.00109,0.35326 0.02297,0.70615 0.072,1.056c0.06067,0.426 0.161,0.818 0.301,1.176c0.10948,0.287 0.26078,0.55625 0.449,0.799c0.19629,0.25043 0.43696,0.46263 0.71,0.626c0.51288,0.31143 1.10197,0.4748 1.702,0.472c0.32837,0.00259 0.65518,-0.04531 0.969,-0.142c0.33552,-0.10536 0.64708,-0.27558 0.917,-0.501c0.48333,-0.402 0.82033,-0.98667 1.011,-1.754c0.01243,-0.05082 0.0241,-0.10183 0.035,-0.153z" fill-rule="evenodd" stroke="#000000" stroke-width="0.25" stroke-linecap="round"></path><path d="M3.616,10.021h-3.616v-10.021h3.452c0.67533,0 1.212,0.036 1.61,0.108c0.05829,0.01053 0.11631,0.02254 0.174,0.036c0.32584,0.07254 0.64013,0.18964 0.934,0.348c0.19092,0.10418 0.37054,0.22784 0.536,0.369c0.48464,0.41227 0.86468,0.93351 1.109,1.521c0.02705,0.06344 0.05272,0.12745 0.077,0.192c0.262,0.69467 0.393,1.48867 0.393,2.382c0.00125,0.33853 -0.01812,0.67682 -0.058,1.013c-0.04333,0.35 -0.11,0.677 -0.2,0.981c-0.00264,0.01001 -0.0053,0.02001 -0.008,0.03c-0.178,0.58733 -0.406,1.07367 -0.684,1.459c-0.13149,0.18352 -0.27763,0.35609 -0.437,0.516c-0.14556,0.14611 -0.30498,0.27773 -0.476,0.393c-0.19526,0.1292 -0.40378,0.23715 -0.622,0.322c-0.18698,0.07335 -0.37876,0.13383 -0.574,0.181c-0.24364,0.05816 -0.49084,0.10025 -0.74,0.126c-0.272,0.02933 -0.562,0.044 -0.87,0.044z" fill-rule="evenodd" stroke="#000000" stroke-width="0.25" stroke-linecap="round"></path><path d="M7.479,10.021h-7.479v-10.021h7.246v1.183h-5.92v3.069h5.544v1.176h-5.544v3.411h6.153z" fill-rule="evenodd" stroke="#000000" stroke-width="0.25" stroke-linecap="round"></path><path d="M1.326,10.021h-1.326v-10.021h6.761v1.183h-5.435v3.103h4.703v1.183h-4.703z" fill-rule="evenodd" stroke="#000000" stroke-width="0.25" stroke-linecap="round"></path><path d="M7.971,6.262h-2.946v-1.176l4.245,-0.007v3.719c-0.38651,0.31061 -0.80095,0.58478 -1.238,0.819c-0.25195,0.134 -0.51214,0.2519 -0.779,0.353c-0.69267,0.262 -1.40367,0.393 -2.133,0.393c-0.61392,0.00418 -1.2248,-0.08656 -1.811,-0.269c-0.30076,-0.09518 -0.59255,-0.21665 -0.872,-0.363c-0.78511,-0.40215 -1.42287,-1.04236 -1.822,-1.829c-0.41,-0.79733 -0.615,-1.688 -0.615,-2.672c-0.00675,-0.94507 0.20258,-1.87919 0.612,-2.731c0.21085,-0.44699 0.49626,-0.85481 0.844,-1.206c0.2705,-0.26962 0.57912,-0.49806 0.916,-0.678c0.54361,-0.28746 1.13424,-0.47542 1.744,-0.555c0.29893,-0.04069 0.60031,-0.06074 0.902,-0.06c0.72467,0 1.37967,0.11733 1.965,0.352c0.26036,0.10259 0.50854,0.23373 0.74,0.391c0.24095,0.16368 0.45601,0.36256 0.638,0.59c0.3,0.37867 0.53533,0.86167 0.706,1.449c0.01833,0.06373 0.03566,0.12773 0.052,0.192l-1.196,0.328c-0.05004,-0.1722 -0.10878,-0.34175 -0.176,-0.508c-0.064,-0.15533 -0.13233,-0.29667 -0.205,-0.424c-0.05398,-0.09419 -0.11411,-0.18472 -0.18,-0.271c-0.22267,-0.292 -0.54167,-0.52567 -0.957,-0.701c-0.3146,-0.13148 -0.64744,-0.2141 -0.987,-0.245c-0.13063,-0.01231 -0.26179,-0.01832 -0.393,-0.018c-0.60667,0 -1.131,0.09233 -1.573,0.277c-0.20359,0.08382 -0.39852,0.18731 -0.582,0.309c-0.17934,0.11898 -0.34326,0.25972 -0.488,0.419c-0.26546,0.29202 -0.47918,0.62715 -0.632,0.991c-0.22427,0.55098 -0.35148,1.13663 -0.376,1.731c-0.00461,0.09526 -0.00694,0.19062 -0.007,0.286c0,0.89267 0.154,1.64 0.462,2.242c0.30733,0.60133 0.755,1.048 1.343,1.34c0.588,0.29133 1.21233,0.437 1.873,0.437c0.57682,-0.00028 1.14808,-0.1127 1.682,-0.331c0.16063,-0.06462 0.31875,-0.13534 0.474,-0.212c0.15933,-0.07933 0.30333,-0.16033 0.432,-0.243c0.11895,-0.0756 0.23195,-0.16018 0.338,-0.253z" fill-rule="evenodd" stroke="#000000" stroke-width="0.25" stroke-linecap="round"></path><path d="M1.326,10.021h-1.326v-10.021h1.326v4.115h5.209v-4.115h1.326v10.021h-1.326v-4.723h-5.209z" fill-rule="evenodd" stroke="#000000" stroke-width="0.25" stroke-linecap="round"></path><path d="M1.326,10.021h-1.326v-10.021h1.326z" fill-rule="evenodd" stroke="#000000" stroke-width="0.25" stroke-linecap="round"></path><path d="M0.001,7.178l1.196,-0.164c0.032,0.76533 0.17567,1.28933 0.431,1.572c0.19139,0.21096 0.4488,0.35059 0.73,0.396c0.10894,0.01923 0.21938,0.0286 0.33,0.028c0.14719,0.0007 0.29393,-0.01642 0.437,-0.051c0.15003,-0.036 0.29323,-0.09612 0.424,-0.178c0.2337,-0.14289 0.41018,-0.36288 0.499,-0.622c0.09133,-0.262 0.137,-0.68033 0.137,-1.255v-6.904h1.326v6.829c0.00071,0.24097 -0.00897,0.48186 -0.029,0.722c-0.04133,0.474 -0.12633,0.86633 -0.255,1.177c-0.00648,0.01641 -0.01315,0.03274 -0.02,0.049c-0.20333,0.46067 -0.52467,0.81167 -0.964,1.053c-0.29249,0.15856 -0.61015,0.26546 -0.939,0.316c-0.20178,0.03162 -0.40576,0.047 -0.61,0.046c-0.71067,0 -1.28667,-0.16533 -1.728,-0.496c-0.10512,-0.07825 -0.20286,-0.16595 -0.292,-0.262c-0.22593,-0.25006 -0.39483,-0.54622 -0.495,-0.868c-0.12867,-0.39267 -0.188,-0.85533 -0.178,-1.388z" fill-rule="evenodd" stroke="#000000" stroke-width="0.25" stroke-linecap="round"></path><path d="M1.326,10.021h-1.326v-10.021h1.326v4.97l4.977,-4.97h1.798l-4.205,4.061l4.389,5.96h-1.75l-3.568,-5.072l-1.641,1.6z" fill-rule="evenodd" stroke="#000000" stroke-width="0.25" stroke-linecap="round"></path><g clip-path="url(#clip-1)"><g id="svgGroup" fill-rule="evenodd" stroke="#000000" stroke-width="0.25" stroke-linecap="round"><path d="M6.262,10.021h-6.262v-10.021h1.326v8.839h4.936z"></path></g></g></g></svg>