<svg version="1.1" xmlns="http://www.w3.org/2000/svg" xmlns:xlink="http://www.w3.org/1999/xlink" width="13.29834" height="11.26247" viewBox="-0.24845,-0.12516,13.29834,11.26247"><g fill="none" fill-rule="evenodd" stroke="#000000" stroke-width="0.25" stroke-linecap="round" stroke-linejoin="miter" stroke-miterlimit="10" stroke-dasharray="" stroke-dashoffset="0" font-family="none" font-weight="none" font-size="none" text-anchor="none" style="mix-blend-mode: normal"><path d="M1.408,10.021h-1.408l3.849,-10.021h1.428l4.102,10.021h-1.511l-1.169,-3.035h-4.19z"></path><path d="M3.821,10.022h-3.821v-10.022h3.76c0.24042,-0.00091 0.48073,0.01044 0.72,0.034c0.234,0.024 0.44933,0.06067 0.646,0.11c0.16285,0.03996 0.32207,0.09348 0.476,0.16c0.4505,0.19243 0.83026,0.51979 1.087,0.937c0.15414,0.24372 0.26667,0.51137 0.333,0.792c0.04004,0.17416 0.06017,0.3523 0.06,0.531c0,0.428 -0.11633,0.831 -0.349,1.209c-0.1585,0.25504 -0.3658,0.47627 -0.61,0.651c-0.13957,0.10068 -0.28743,0.18933 -0.442,0.265c0.24796,0.07083 0.48612,0.17228 0.709,0.302c0.26716,0.15573 0.50124,0.36229 0.689,0.608c0.29355,0.3879 0.46203,0.856 0.483,1.342c0.00336,0.05827 0.00503,0.11663 0.005,0.175c0.00373,0.45345 -0.09794,0.90156 -0.297,1.309c-0.08106,0.16735 -0.17712,0.327 -0.287,0.477c-0.12644,0.17291 -0.27736,0.32651 -0.448,0.456c-0.16332,0.12137 -0.34017,0.22339 -0.527,0.304c-0.174,0.076 -0.364,0.14 -0.57,0.192c-0.19263,0.04782 -0.38799,0.08388 -0.585,0.108c-0.30867,0.04 -0.65267,0.06 -1.032,0.06z"></path><path d="M7.533,6.679l1.326,0.335c-0.10108,0.40826 -0.24801,0.80377 -0.438,1.179c-0.2555,0.50892 -0.61773,0.95676 -1.062,1.313c-0.57411,0.45055 -1.26194,0.73303 -1.987,0.816c-0.21957,0.02777 -0.44068,0.04146 -0.662,0.041c-0.36374,0.00199 -0.727,-0.02645 -1.086,-0.085c-0.40267,-0.068 -0.768,-0.17667 -1.096,-0.326c-0.15693,-0.07135 -0.30834,-0.15424 -0.453,-0.248c-0.54238,-0.35588 -0.98884,-0.83978 -1.3,-1.409c-0.09089,-0.16267 -0.17269,-0.33026 -0.245,-0.502c-0.34508,-0.82255 -0.52484,-1.705 -0.529,-2.597c-0.0005,-0.02966 -0.00084,-0.05933 -0.001,-0.089c-0.00234,-0.46326 0.04188,-0.92558 0.132,-1.38c0.09272,-0.46955 0.24952,-0.92414 0.466,-1.351c0.39867,-0.77733 0.966,-1.36767 1.702,-1.771c0.73913,-0.40251 1.56839,-0.61068 2.41,-0.605c0.007,-0.00001 0.014,-0.00001 0.021,0c1.002,0 1.845,0.25533 2.529,0.766c0.54623,0.41136 0.97148,0.96236 1.231,1.595c0.07705,0.18189 0.14317,0.36822 0.198,0.558l-1.306,0.308c-0.07334,-0.23459 -0.16599,-0.46271 -0.277,-0.682c-0.122,-0.23733 -0.26033,-0.44267 -0.415,-0.616c-0.09673,-0.1086 -0.20391,-0.20741 -0.32,-0.295c-0.29305,-0.21767 -0.63147,-0.36636 -0.99,-0.435c-0.22329,-0.04396 -0.45043,-0.0654 -0.678,-0.064c-0.29446,-0.00207 -0.58825,0.02845 -0.876,0.091c-0.37925,0.08175 -0.73808,0.23923 -1.055,0.463c-0.51733,0.36867 -0.88067,0.864 -1.09,1.486c-0.20954,0.62013 -0.31596,1.27043 -0.315,1.925c-0.00109,0.35326 0.02297,0.70615 0.072,1.056c0.06067,0.426 0.161,0.818 0.301,1.176c0.10948,0.287 0.26078,0.55625 0.449,0.799c0.19629,0.25043 0.43696,0.46263 0.71,0.626c0.51288,0.31143 1.10197,0.4748 1.702,0.472c0.32837,0.00259 0.65518,-0.04531 0.969,-0.142c0.33552,-0.10536 0.64708,-0.27558 0.917,-0.501c0.48333,-0.402 0.82033,-0.98667 1.011,-1.754c0.01243,-0.05082 0.0241,-0.10183 0.035,-0.153z"></path><path d="M3.616,10.021h-3.616v-10.021h3.452c0.67533,0 1.212,0.036 1.61,0.108c0.05829,0.01053 0.11631,0.02254 0.174,0.036c0.32584,0.07254 0.64013,0.18964 0.934,0.348c0.19092,0.10418 0.37054,0.22784 0.536,0.369c0.48464,0.41227 0.86468,0.93351 1.109,1.521c0.02705,0.06344 0.05272,0.12745 0.077,0.192c0.262,0.69467 0.393,1.48867 0.393,2.382c0.00125,0.33853 -0.01812,0.67682 -0.058,1.013c-0.04333,0.35 -0.11,0.677 -0.2,0.981c-0.00264,0.01001 -0.0053,0.02001 -0.008,0.03c-0.178,0.58733 -0.406,1.07367 -0.684,1.459c-0.13149,0.18352 -0.27763,0.35609 -0.437,0.516c-0.14556,0.14611 -0.30498,0.27773 -0.476,0.393c-0.19526,0.1292 -0.40378,0.23715 -0.622,0.322c-0.18698,0.07335 -0.37876,0.13383 -0.574,0.181c-0.24364,0.05816 -0.49084,0.10025 -0.74,0.126c-0.272,0.02933 -0.562,0.044 -0.87,0.044z"></path><path d="M7.479,10.021h-7.479v-10.021h7.246v1.183h-5.92v3.069h5.544v1.176h-5.544v3.411h6.153z"></path><path d="M1.326,10.021h-1.326v-10.021h6.761v1.183h-5.435v3.103h4.703v1.183h-4.703z"></path><path d="M7.971,6.262h-2.946v-1.176l4.245,-0.007v3.719c-0.38651,0.31061 -0.80095,0.58478 -1.238,0.819c-0.25195,0.134 -0.51214,0.2519 -0.779,0.353c-0.69267,0.262 -1.40367,0.393 -2.133,0.393c-0.61392,0.00418 -1.2248,-0.08656 -1.811,-0.269c-0.30076,-0.09518 -0.59255,-0.21665 -0.872,-0.363c-0.78511,-0.40215 -1.42287,-1.04236 -1.822,-1.829c-0.41,-0.79733 -0.615,-1.688 -0.615,-2.672c-0.00675,-0.94507 0.20258,-1.87919 0.612,-2.731c0.21085,-0.44699 0.49626,-0.85481 0.844,-1.206c0.2705,-0.26962 0.57912,-0.49806 0.916,-0.678c0.54361,-0.28746 1.13424,-0.47542 1.744,-0.555c0.29893,-0.04069 0.60031,-0.06074 0.902,-0.06c0.72467,0 1.37967,0.11733 1.965,0.352c0.26036,0.10259 0.50854,0.23373 0.74,0.391c0.24095,0.16368 0.45601,0.36256 0.638,0.59c0.3,0.37867 0.53533,0.86167 0.706,1.449c0.01833,0.06373 0.03566,0.12773 0.052,0.192l-1.196,0.328c-0.05004,-0.1722 -0.10878,-0.34175 -0.176,-0.508c-0.064,-0.15533 -0.13233,-0.29667 -0.205,-0.424c-0.05398,-0.09419 -0.11411,-0.18472 -0.18,-0.271c-0.22267,-0.292 -0.54167,-0.52567 -0.957,-0.701c-0.3146,-0.13148 -0.64744,-0.2141 -0.987,-0.245c-0.13063,-0.01231 -0.26179,-0.01832 -0.393,-0.018c-0.60667,0 -1.131,0.09233 -1.573,0.277c-0.20359,0.08382 -0.39852,0.18731 -0.582,0.309c-0.17934,0.11898 -0.34326,0.25972 -0.488,0.419c-0.26546,0.29202 -0.47918,0.62715 -0.632,0.991c-0.22427,0.55098 -0.35148,1.13663 -0.376,1.731c-0.00461,0.09526 -0.00694,0.19062 -0.007,0.286c0,0.89267 0.154,1.64 0.462,2.242c0.30733,0.60133 0.755,1.048 1.343,1.34c0.588,0.29133 1.21233,0.437 1.873,0.437c0.57682,-0.00028 1.14808,-0.1127 1.682,-0.331c0.16063,-0.06462 0.31875,-0.13534 0.474,-0.212c0.15933,-0.07933 0.30333,-0.16033 0.432,-0.243c0.11895,-0.0756 0.23195,-0.16018 0.338,-0.253z"></path><path d="M1.326,10.021h-1.326v-10.021h1.326v4.115h5.209v-4.115h1.326v10.021h-1.326v-4.723h-5.209z"></path><path d="M1.326,10.021h-1.326v-10.021h1.326z"></path><path d="M0.001,7.178l1.196,-0.164c0.032,0.76533 0.17567,1.28933 0.431,1.572c0.19139,0.21096 0.4488,0.35059 0.73,0.396c0.10894,0.01923 0.21938,0.0286 0.33,0.028c0.14719,0.0007 0.29393,-0.01642 0.437,-0.051c0.15003,-0.036 0.29323,-0.09612 0.424,-0.178c0.2337,-0.14289 0.41018,-0.36288 0.499,-0.622c0.09133,-0.262 0.137,-0.68033 0.137,-1.255v-6.904h1.326v6.829c0.00071,0.24097 -0.00897,0.48186 -0.029,0.722c-0.04133,0.474 -0.12633,0.86633 -0.255,1.177c-0.00648,0.01641 -0.01315,0.03274 -0.02,0.049c-0.20333,0.46067 -0.52467,0.81167 -0.964,1.053c-0.29249,0.15856 -0.61015,0.26546 -0.939,0.316c-0.20178,0.03162 -0.40576,0.047 -0.61,0.046c-0.71067,0 -1.28667,-0.16533 -1.728,-0.496c-0.10512,-0.07825 -0.20286,-0.16595 -0.292,-0.262c-0.22593,-0.25006 -0.39483,-0.54622 -0.495,-0.868c-0.12867,-0.39267 -0.188,-0.85533 -0.178,-1.388z"></path><path d="M1.326,10.021h-1.326v-10.021h1.326v4.97l4.977,-4.97h1.798l-4.205,4.061l4.389,5.96h-1.75l-3.568,-5.072l-1.641,1.6z"></path><path d="M6.262,10.021h-6.262v-10.021h1.326v8.839h4.936z"></path><path d="M1.278,10.021h-1.278v-10.021h1.996l2.372,7.096c0.05125,0.15458 0.10225,0.30925 0.153,0.464c0.14133,0.432 0.24967,0.771 0.325,1.017c0.00033,0.00067 0.00067,0.00133 0.001,0.002c0.03181,-0.10183 0.06414,-0.2035 0.097,-0.305c0.07533,-0.232 0.16767,-0.50967 0.277,-0.833c0.05272,-0.15609 0.10572,-0.3121 0.159,-0.468l2.399,-6.973h1.784v10.021h-1.278v-8.387l-2.912,8.387h-1.196l-2.899,-8.531z"></path><path d="M1.271,10.021h-1.271v-10.021h1.36l5.264,7.868v-7.868h1.272v10.021h-1.361l-5.264,-7.875z"></path><path d="M0,5.319c0,-1.664 0.44667,-2.96633 1.34,-3.907c0.80113,-0.84911 1.90259,-1.35121 3.069,-1.399c0.12983,-0.00853 0.25989,-0.01286 0.39,-0.013c0.58031,-0.00448 1.15695,0.09231 1.704,0.286c0.27743,0.0999 0.54465,0.22614 0.798,0.377c0.73654,0.43498 1.32773,1.07838 1.699,1.849c0.28531,0.58679 0.46731,1.21837 0.538,1.867c0.03124,0.27321 0.0466,0.54801 0.046,0.823c0.0032,0.52955 -0.05859,1.0575 -0.184,1.572c-0.09905,0.40053 -0.24366,0.78839 -0.431,1.156c-0.38068,0.77152 -0.9891,1.40752 -1.743,1.822c-0.74522,0.41054 -1.5832,0.6233 -2.434,0.618c-0.54689,0.00423 -1.09077,-0.08123 -1.61,-0.253c-0.32153,-0.10832 -0.62981,-0.25256 -0.919,-0.43c-0.74267,-0.456 -1.30567,-1.07833 -1.689,-1.867c-0.38041,-0.77868 -0.5768,-1.63437 -0.574,-2.501z"></path><path d="M1.326,10.021h-1.326v-10.021h3.78c0.15669,-0.00012 0.31337,0.00188 0.47,0.006c0.33667,0.00933 0.62167,0.029 0.855,0.059c0.06692,0.00863 0.13361,0.01897 0.2,0.031c0.20387,0.03298 0.40459,0.08316 0.6,0.15c0.234,0.08133 0.44333,0.18533 0.628,0.312c0.003,0.00199 0.006,0.00399 0.009,0.006c0.24494,0.17123 0.45445,0.38822 0.617,0.639c0.06895,0.10524 0.13108,0.2148 0.186,0.328c0.18408,0.38025 0.2866,0.79479 0.301,1.217c0.00205,0.04997 0.00305,0.09998 0.003,0.15c0.00425,0.40237 -0.06453,0.80218 -0.203,1.18c-0.13774,0.36438 -0.34491,0.69856 -0.61,0.984c-0.2232,0.2347 -0.49435,0.41854 -0.795,0.539c-0.544,0.23067 -1.259,0.346 -2.145,0.346h-2.57z"></path><path d="M9.776,10.056l-0.39,0.923c-0.44364,-0.16243 -0.8698,-0.36914 -1.272,-0.617c-0.30541,-0.18728 -0.59958,-0.3923 -0.881,-0.614c-0.73996,0.41058 -1.57277,0.62472 -2.419,0.622c-0.014,0.00005 -0.028,0.00005 -0.042,0c-0.90733,0 -1.73,-0.21867 -2.468,-0.656c-0.7367,-0.43558 -1.32976,-1.0773 -1.706,-1.846c-0.39867,-0.79267 -0.598,-1.68567 -0.598,-2.679c-0.0036,-0.59143 0.0755,-1.18047 0.235,-1.75c0.09328,-0.32746 0.21612,-0.64577 0.367,-0.951c0.24345,-0.50356 0.58083,-0.956 0.994,-1.333c0.22008,-0.19819 0.46079,-0.37219 0.718,-0.519c0.68154,-0.38703 1.44669,-0.60319 2.23,-0.63c0.08495,-0.00387 0.16997,-0.00587 0.255,-0.006c0.58015,-0.00463 1.15671,0.09146 1.704,0.284c0.27737,0.09964 0.54458,0.22554 0.798,0.376c0.7369,0.43319 1.3283,1.07577 1.699,1.846c0.29425,0.60538 0.47878,1.25816 0.545,1.928c0.02625,0.24847 0.03927,0.49815 0.039,0.748c0.00193,0.41393 -0.03287,0.82722 -0.104,1.235c-0.05965,0.33775 -0.15071,0.66919 -0.272,0.99c-0.25067,0.65867 -0.629,1.23167 -1.135,1.719c0.23566,0.16312 0.47786,0.31658 0.726,0.46c0.246,0.14133 0.48333,0.262 0.712,0.362c0.08739,0.03827 0.17576,0.07428 0.265,0.108z"></path><path d="M1.326,10.022h-1.326v-10.022h4.443c0.89333,0 1.57233,0.09 2.037,0.27c0.43701,0.16958 0.80864,0.47396 1.061,0.869c0.01852,0.028 0.03652,0.05634 0.054,0.085c0.278,0.45533 0.417,0.95867 0.417,1.51c0.00348,0.33553 -0.05517,0.66882 -0.173,0.983c-0.11736,0.3031 -0.29339,0.58006 -0.518,0.815c-0.22319,0.23168 -0.48774,0.41958 -0.78,0.554c-0.376,0.17867 -0.827,0.304 -1.353,0.376c0.10329,0.04912 0.20501,0.10148 0.305,0.157c0.10067,0.05667 0.192,0.113 0.274,0.169c0.07734,0.05281 0.15117,0.1106 0.221,0.173c0.22193,0.20529 0.42817,0.42691 0.617,0.663c0.17266,0.21493 0.33421,0.43855 0.484,0.67l1.743,2.728h-1.668l-1.326,-2.085c-0.09161,-0.14235 -0.18428,-0.28402 -0.278,-0.425c-0.26467,-0.398 -0.491,-0.71667 -0.679,-0.956c-0.07103,-0.09078 -0.14507,-0.17916 -0.222,-0.265c-0.146,-0.162 -0.28167,-0.28733 -0.407,-0.376c-0.01448,-0.00995 -0.02915,-0.01962 -0.044,-0.029c-0.11856,-0.07703 -0.24452,-0.14201 -0.376,-0.194c-0.07463,-0.02939 -0.15113,-0.05377 -0.229,-0.073c-0.04334,-0.00892 -0.08705,-0.01593 -0.131,-0.021c-0.1,-0.012 -0.22433,-0.02 -0.373,-0.024c-0.07832,-0.00204 -0.15666,-0.00304 -0.235,-0.003h-1.538z"></path><path d="M0,6.973l1.251,-0.11c0.02119,0.18823 0.0573,0.37449 0.108,0.557c0.07333,0.258 0.17533,0.48367 0.306,0.677c0.202,0.30067 0.509,0.54733 0.921,0.74c0.02881,0.01374 0.05782,0.02707 0.087,0.04c0.32304,0.13835 0.66471,0.22832 1.014,0.267c0.17393,0.02022 0.3489,0.03024 0.524,0.03c0.22496,0.00074 0.44963,-0.01597 0.672,-0.05c0.22835,-0.03448 0.45231,-0.09349 0.668,-0.176c0.33267,-0.12867 0.592,-0.29867 0.778,-0.51c0.03075,-0.03456 0.05978,-0.0706 0.087,-0.108c0.18867,-0.262 0.283,-0.548 0.283,-0.858c0,-0.31467 -0.091,-0.58933 -0.273,-0.824c-0.18267,-0.23467 -0.48367,-0.43167 -0.903,-0.591c-0.0735,-0.02801 -0.14787,-0.05369 -0.223,-0.077c-0.32133,-0.102 -0.84167,-0.23933 -1.561,-0.412c-0.92067,-0.22133 -1.56533,-0.43 -1.934,-0.626c-0.47867,-0.25067 -0.83533,-0.56167 -1.07,-0.933c-0.23509,-0.37304 -0.35733,-0.80609 -0.352,-1.247c-0.00056,-0.50518 0.14911,-0.99911 0.43,-1.419c0.2253,-0.34079 0.5296,-0.6221 0.887,-0.82c0.11974,-0.06807 0.24365,-0.12852 0.371,-0.181c0.40809,-0.16633 0.83831,-0.27212 1.277,-0.314c0.18674,-0.01882 0.37431,-0.02816 0.562,-0.028c0.33063,-0.00139 0.6608,0.02503 0.987,0.079c0.33571,0.05529 0.6639,0.14924 0.978,0.28c0.28506,0.11755 0.55099,0.27697 0.789,0.473c0.20149,0.16756 0.37706,0.36402 0.521,0.583c0.29701,0.45482 0.46593,0.98128 0.489,1.524c0.00114,0.01833 0.00214,0.03666 0.003,0.055l-1.272,0.096c-0.064,-0.59333 -0.271,-1.05067 -0.621,-1.372c-0.02373,-0.02201 -0.04807,-0.04335 -0.073,-0.064c-0.17844,-0.14308 -0.38141,-0.25252 -0.599,-0.323c-0.31933,-0.108 -0.70167,-0.162 -1.147,-0.162c-0.73667,0 -1.28967,0.124 -1.659,0.372c-0.03263,0.02164 -0.06433,0.04466 -0.095,0.069c-0.12373,0.09722 -0.23285,0.21173 -0.324,0.34c-0.14921,0.21138 -0.22826,0.46428 -0.226,0.723c0,0.36 0.13,0.65633 0.39,0.889c0.222,0.202 0.75633,0.40867 1.603,0.62c0.13165,0.03278 0.26366,0.06411 0.396,0.094c1.078,0.244 1.81767,0.457 2.219,0.639c0.20612,0.09398 0.40384,0.20538 0.591,0.333c0.22,0.15133 0.40633,0.31833 0.559,0.501c0.05053,0.06019 0.09792,0.12294 0.142,0.188c0.25094,0.37507 0.39351,0.81211 0.412,1.263c0.00312,0.05395 0.00479,0.10796 0.005,0.162c-0.00071,0.52792 -0.15498,1.04423 -0.444,1.486c-0.00464,0.00735 -0.0093,0.01469 -0.014,0.022c-0.2451,0.37447 -0.57371,0.68699 -0.96,0.913c-0.11514,0.06884 -0.23398,0.13126 -0.356,0.187c-0.41596,0.18825 -0.85912,0.30942 -1.313,0.359c-0.20551,0.02322 -0.41218,0.03457 -0.619,0.034c-0.32016,0.00141 -0.6401,-0.01696 -0.958,-0.055c-0.33467,-0.042 -0.64333,-0.107 -0.926,-0.195c-0.13412,-0.04175 -0.26597,-0.09049 -0.395,-0.146c-0.42278,-0.17765 -0.80339,-0.44241 -1.117,-0.777c-0.12007,-0.12934 -0.22912,-0.26849 -0.326,-0.416c-0.34452,-0.52724 -0.53469,-1.14034 -0.549,-1.77c-0.00037,-0.01033 -0.00071,-0.02067 -0.001,-0.031z"></path><path d="M4.628,10.021h-1.326v-8.838h-3.302v-1.183h7.943v1.183h-3.315z"></path><path d="M6.556,5.783v-5.783h1.326v5.79c0,0.65 -0.04767,1.21367 -0.143,1.691c-0.04613,0.24122 -0.1127,0.47807 -0.199,0.708c-0.19607,0.505 -0.53225,0.94351 -0.969,1.264c-0.0856,0.06455 -0.17402,0.12528 -0.265,0.182c-0.29448,0.18041 -0.61487,0.31463 -0.95,0.398c-0.41067,0.106 -0.87433,0.159 -1.391,0.159c-0.3164,0.00164 -0.63252,-0.01908 -0.946,-0.062c-0.52267,-0.07467 -0.97533,-0.21567 -1.358,-0.423c-0.57821,-0.30316 -1.03082,-0.80074 -1.278,-1.405c-0.09373,-0.23002 -0.16669,-0.46797 -0.218,-0.711c-0.11,-0.504 -0.165,-1.10433 -0.165,-1.801v-5.79h1.326v5.783c0,0.87067 0.081,1.51233 0.243,1.925c0.162,0.412 0.44,0.72967 0.834,0.953c0.22628,0.12601 0.47092,0.21577 0.725,0.266c0.20467,0.04267 0.42467,0.06567 0.66,0.069c0.02033,0.00014 0.04067,0.00014 0.061,0c0.962,0 1.65133,-0.215 2.068,-0.645c0.00571,-0.00595 0.01138,-0.01195 0.017,-0.018c0.14098,-0.15651 0.25215,-0.33749 0.328,-0.534c0.142,-0.348 0.23267,-0.798 0.272,-1.35c0.01513,-0.22167 0.02247,-0.44381 0.022,-0.666z"></path><path d="M5.243,10.021h-1.36l-3.883,-10.021h1.436l2.604,7.28c0.1132,0.31454 0.22022,0.63127 0.321,0.95c0.07244,0.2291 0.14078,0.45947 0.205,0.691c0.1573,-0.55421 0.33745,-1.10168 0.54,-1.641l2.707,-7.28h1.354z"></path><path d="M4.013,10.021h-1.354l-2.659,-10.021h1.36l1.525,6.569c0.16226,0.67917 0.30366,1.36316 0.424,2.051c0.25467,-1.07067 0.405,-1.688 0.451,-1.852l1.907,-6.768h1.6l1.435,5.072c0.19522,0.67738 0.36633,1.36148 0.513,2.051c0.10476,0.49601 0.19348,0.99527 0.266,1.497c0.128,-0.63333 0.29433,-1.36033 0.499,-2.181l1.573,-6.439h1.333l-2.748,10.021h-1.279l-2.112,-7.635c-0.166,-0.59733 -0.26833,-0.979 -0.307,-1.145c-0.0024,-0.01032 -0.00473,-0.02065 -0.007,-0.031c-0.08067,0.35267 -0.157,0.665 -0.229,0.937c-0.02106,0.07983 -0.04273,0.1595 -0.065,0.239z"></path><path d="M1.593,10.021h-1.593l3.876,-5.222l-3.418,-4.799h1.579l1.818,2.57c0.08899,0.12497 0.17699,0.25064 0.264,0.377c0.16667,0.24333 0.30433,0.454 0.413,0.632c0.04485,0.0731 0.0882,0.14711 0.13,0.222c0.13189,-0.21472 0.27063,-0.42516 0.416,-0.631c0.12203,-0.17299 0.24773,-0.34336 0.377,-0.511l2.017,-2.659h1.442l-3.52,4.724l3.794,5.297h-1.641l-2.523,-3.575c-0.09205,-0.13396 -0.18206,-0.26931 -0.27,-0.406c-0.05637,-0.08756 -0.11204,-0.17556 -0.167,-0.264c-0.05071,0.08318 -0.10171,0.16618 -0.153,0.249c-0.124,0.19867 -0.22133,0.35 -0.292,0.454c-0.01121,0.01642 -0.02255,0.03275 -0.034,0.049z"></path><path d="M5.188,10.021h-1.326v-4.245l-3.862,-5.776h1.613l1.976,3.021c0.35767,0.55412 0.69719,1.11976 1.018,1.696c0.14052,-0.24406 0.28453,-0.48608 0.432,-0.726c0.20067,-0.32733 0.42133,-0.67567 0.662,-1.045l1.942,-2.946h1.545l-4,5.776z"></path><path d="M7.923,10.021h-7.923v-1.23l5.134,-6.419c0.17052,-0.21369 0.34556,-0.42374 0.525,-0.63c0.176,-0.202 0.34733,-0.38833 0.514,-0.559h-5.592v-1.183h7.178v1.183l-5.626,6.952l-0.609,0.704h6.399z"></path></g></svg>